<?xml version="1.0" encoding="UTF-8"?>
<svg version="1.1" xmlns="http://www.w3.org/2000/svg" width="500" height="500">
<path d="M0 0 C165 0 330 0 500 0 C500 165 500 330 500 500 C335 500 170 500 0 500 C0 335 0 170 0 0 Z " fill="#FEFEFE" transform="translate(0,0)"/>
<path d="M0 0 C3.3 0 6.6 0 10 0 C10.495 7.425 10.495 7.425 11 15 C12.65 14.01 14.3 13.02 16 12 C19.84998924 11.25625208 23.13581839 11.64647116 26.75 13.125 C29.50134005 15.41778337 31.16536956 17.9422826 33 21 C33.38671875 20.51789063 33.7734375 20.03578125 34.171875 19.5390625 C34.69265625 18.90742188 35.2134375 18.27578125 35.75 17.625 C36.51570313 16.68527344 36.51570313 16.68527344 37.296875 15.7265625 C39.97139074 13.0152415 42.01155023 12.10600367 45.8046875 11.69921875 C56.39146373 11.65881121 56.39146373 11.65881121 61 15 C63.25 17.625 63.25 17.625 65 20 C65.66 20.33 66.32 20.66 67 21 C67.226875 20.4225 67.45375 19.845 67.6875 19.25 C69.66629537 15.85777937 72.50986942 13.74506529 76 12 C83.40751496 11.31432714 89.06127704 11.29851099 95 16 C96.98 18.97 96.98 18.97 99 22 C99.33 14.74 99.66 7.48 100 0 C121.12 0 142.24 0 164 0 C164.33 14.52 164.66 29.04 165 44 C172.77597806 33.17984384 172.77597806 33.17984384 180 22 C178.23058467 19.41569281 176.45921687 16.83272976 174.6875 14.25 C174.18798828 13.52039063 173.68847656 12.79078125 173.17382812 12.0390625 C172.68720703 11.33007812 172.20058594 10.62109375 171.69921875 9.890625 C171.25408936 9.24125977 170.80895996 8.59189453 170.3503418 7.92285156 C169.38402721 6.54684475 168.37182051 5.20262103 167.33129883 3.88183594 C166 2 166 2 166 0 C181.26345609 -1.37677054 181.26345609 -1.37677054 185.39453125 1.8984375 C186.87744288 4.21853722 187.97378803 6.44988527 189 9 C189.99 10.485 189.99 10.485 191 12 C191.30808594 11.13375 191.61617187 10.2675 191.93359375 9.375 C193.62522077 5.57872534 195.03933785 2.943449 198 0 C203.49422446 -1.56134699 209.41560856 -0.67841876 215 0 C213.12869675 5.79536946 209.30827048 10.36956001 205.72460938 15.20507812 C205.23412109 15.89150391 204.74363281 16.57792969 204.23828125 17.28515625 C203.78493408 17.90269775 203.33158691 18.52023926 202.86450195 19.15649414 C201.82848693 20.96103872 201.82848693 20.96103872 202.18286133 22.97265625 C203.13096501 25.32492782 204.3243139 27.11476502 205.8359375 29.15234375 C206.40570313 29.92900391 206.97546875 30.70566406 207.5625 31.50585938 C208.160625 32.30830078 208.75875 33.11074219 209.375 33.9375 C216.56158812 43.65822345 216.56158812 43.65822345 219 48 C206.70252728 49.92901533 206.70252728 49.92901533 201 48 C196.14293821 43.84123783 193.54925429 37.73902473 191 32 C189.9157852 33.54104688 188.83267479 35.08287078 187.75 36.625 C187.14671875 37.48351562 186.5434375 38.34203125 185.921875 39.2265625 C183.92709927 41.99064483 183.92709927 41.99064483 182.328125 45.13671875 C180 48 180 48 176.70019531 48.68115234 C174.78352051 48.634021 174.78352051 48.634021 172.828125 48.5859375 C171.5793457 48.57095215 170.33056641 48.5559668 169.04394531 48.54052734 C167.46194336 48.48590332 165.87994141 48.4312793 164.25 48.375 C156.70125 48.189375 156.70125 48.189375 149 48 C149 35.79 149 23.58 149 11 C141.41 11 133.82 11 126 11 C126 13.64 126 16.28 126 19 C132.93 19 139.86 19 147 19 C147 22.63 147 26.26 147 30 C140.07 30 133.14 30 126 30 C126 35.94 126 41.88 126 48 C117.42 48 108.84 48 100 48 C99.67 45.69 99.34 43.38 99 41 C98.278125 41.763125 97.55625 42.52625 96.8125 43.3125 C92.41107662 47.51830456 89.28354118 49.42298863 83.125 49.375 C76.67916423 49.20078822 72.46496913 48.21215178 67.5625 43.8125 C67.046875 43.214375 66.53125 42.61625 66 42 C65.0925 42.78375 64.185 43.5675 63.25 44.375 C57.95927666 48.94426106 53.81945952 49.38881326 46.91015625 49.24609375 C41.51619035 48.78995972 38.54127919 46.81550858 35.125 42.8125 C34.42375 41.884375 33.7225 40.95625 33 40 C32.67 42.64 32.34 45.28 32 48 C28.37 48 24.74 48 21 48 C20.93941406 46.37449219 20.87882812 44.74898438 20.81640625 43.07421875 C20.73199991 40.94530341 20.64735196 38.81639763 20.5625 36.6875 C20.52318359 35.61564453 20.48386719 34.54378906 20.44335938 33.43945312 C20.40146484 32.41142578 20.35957031 31.38339844 20.31640625 30.32421875 C20.27974854 29.37635498 20.24309082 28.42849121 20.20532227 27.4519043 C20.08569813 24.863829 20.08569813 24.863829 19 22 C16.08365871 21.7497843 16.08365871 21.7497843 13 22 C10.80835056 25.28747416 10.71320614 26.48494825 10.5859375 30.32421875 C10.54726562 31.35224609 10.50859375 32.38027344 10.46875 33.43945312 C10.4378125 34.51130859 10.406875 35.58316406 10.375 36.6875 C10.33632812 37.77095703 10.29765625 38.85441406 10.2578125 39.97070312 C10.16349884 42.64685334 10.08065874 45.32340342 10 48 C6.7 48 3.4 48 0 48 C-0.495 35.625 -0.495 35.625 -1 23 C-2.55571828 28.60843778 -2.55571828 28.60843778 -4.11083984 34.21704102 C-5.38774074 38.81710505 -6.68197459 43.41154706 -8 48 C-12.29 48 -16.58 48 -21 48 C-22.32 41.73 -23.64 35.46 -25 29 C-26.44755587 33.3426676 -27.62813379 37.43441413 -28.625 41.875 C-28.88539062 43.02742188 -29.14578125 44.17984375 -29.4140625 45.3671875 C-29.60742188 46.23601562 -29.80078125 47.10484375 -30 48 C-33.96 48 -37.92 48 -42 48 C-44.4829505 41.69941991 -46.41075184 35.34479138 -48.1875 28.8125 C-48.46013672 27.84119141 -48.73277344 26.86988281 -49.01367188 25.86914062 C-49.27083984 24.92876953 -49.52800781 23.98839844 -49.79296875 23.01953125 C-50.0252417 22.17495361 -50.25751465 21.33037598 -50.49682617 20.46020508 C-51 18 -51 18 -51 13 C-47.7 13 -44.4 13 -41 13 C-40.35269196 15.56213554 -39.70710712 18.12468485 -39.0625 20.6875 C-38.88009766 21.40873047 -38.69769531 22.12996094 -38.50976562 22.87304688 C-38.33251953 23.57880859 -38.15527344 24.28457031 -37.97265625 25.01171875 C-37.81031494 25.65584717 -37.64797363 26.29997559 -37.48071289 26.96362305 C-36.93004578 29.29633732 -36.47005688 31.64971562 -36 34 C-34.35 27.07 -32.7 20.14 -31 13 C-27.04 13 -23.08 13 -19 13 C-17.68 19.6 -16.36 26.2 -15 33 C-14.67 33 -14.34 33 -14 33 C-13.72285156 31.72382813 -13.44570312 30.44765625 -13.16015625 29.1328125 C-12.79441043 27.46351107 -12.42851738 25.7942419 -12.0625 24.125 C-11.88009766 23.28324219 -11.69769531 22.44148438 -11.50976562 21.57421875 C-11.33251953 20.76855469 -11.15527344 19.96289062 -10.97265625 19.1328125 C-10.81031494 18.38918457 -10.64797363 17.64555664 -10.48071289 16.87939453 C-10 15 -10 15 -9 13 C-6.03 13 -3.06 13 0 13 C0 8.71 0 4.42 0 0 Z " fill="#A8A8A8" transform="translate(149,219)"/>
<path d="M0 0 C17.49 0 34.98 0 53 0 C53.33 14.52 53.66 29.04 54 44 C61.77597806 33.17984384 61.77597806 33.17984384 69 22 C67.23058467 19.41569281 65.45921687 16.83272976 63.6875 14.25 C63.18798828 13.52039063 62.68847656 12.79078125 62.17382812 12.0390625 C61.68720703 11.33007812 61.20058594 10.62109375 60.69921875 9.890625 C60.25408936 9.24125977 59.80895996 8.59189453 59.3503418 7.92285156 C58.38402721 6.54684475 57.37182051 5.20262103 56.33129883 3.88183594 C55 2 55 2 55 0 C70.26345609 -1.37677054 70.26345609 -1.37677054 74.39453125 1.8984375 C75.87744288 4.21853722 76.97378803 6.44988527 78 9 C78.99 10.485 78.99 10.485 80 12 C80.30808594 11.13375 80.61617188 10.2675 80.93359375 9.375 C82.62522077 5.57872534 84.03933785 2.943449 87 0 C92.49422446 -1.56134699 98.41560856 -0.67841876 104 0 C102.12869675 5.79536946 98.30827048 10.36956001 94.72460938 15.20507812 C94.23412109 15.89150391 93.74363281 16.57792969 93.23828125 17.28515625 C92.78493408 17.90269775 92.33158691 18.52023926 91.86450195 19.15649414 C90.82848693 20.96103872 90.82848693 20.96103872 91.18286133 22.97265625 C92.13096501 25.32492782 93.3243139 27.11476502 94.8359375 29.15234375 C95.40570313 29.92900391 95.97546875 30.70566406 96.5625 31.50585938 C97.160625 32.30830078 97.75875 33.11074219 98.375 33.9375 C105.56158812 43.65822345 105.56158812 43.65822345 108 48 C95.70252728 49.92901533 95.70252728 49.92901533 90 48 C85.14293821 43.84123783 82.54925429 37.73902473 80 32 C78.9157852 33.54104688 77.83267479 35.08287078 76.75 36.625 C76.14671875 37.48351562 75.5434375 38.34203125 74.921875 39.2265625 C72.92709927 41.99064483 72.92709927 41.99064483 71.328125 45.13671875 C69 48 69 48 65.70019531 48.68115234 C63.78352051 48.634021 63.78352051 48.634021 61.828125 48.5859375 C60.5793457 48.57095215 59.33056641 48.5559668 58.04394531 48.54052734 C56.46194336 48.48590332 54.87994141 48.4312793 53.25 48.375 C45.70125 48.189375 45.70125 48.189375 38 48 C38 35.79 38 23.58 38 11 C30.41 11 22.82 11 15 11 C15 13.64 15 16.28 15 19 C21.93 19 28.86 19 36 19 C36 22.63 36 26.26 36 30 C29.07 30 22.14 30 15 30 C15 35.94 15 41.88 15 48 C10.05 48 5.1 48 0 48 C0 32.16 0 16.32 0 0 Z " fill="#040404" transform="translate(260,219)"/>
<path d="M0 0 C3.3 0 6.6 0 10 0 C10.495 7.425 10.495 7.425 11 15 C12.65 14.01 14.3 13.02 16 12 C19.89829437 11.24692041 23.16977705 11.64946142 26.8125 13.1875 C30.07672303 15.89214194 31.59190956 18.47893563 32.6875 22.5625 C33.46429091 31.1072 33.00041593 39.49646462 32 48 C28.37 48 24.74 48 21 48 C20.93941406 46.37449219 20.87882812 44.74898438 20.81640625 43.07421875 C20.73199991 40.94530341 20.64735196 38.81639763 20.5625 36.6875 C20.52318359 35.61564453 20.48386719 34.54378906 20.44335938 33.43945312 C20.40146484 32.41142578 20.35957031 31.38339844 20.31640625 30.32421875 C20.27974854 29.37635498 20.24309082 28.42849121 20.20532227 27.4519043 C20.08569813 24.863829 20.08569813 24.863829 19 22 C16.08365871 21.7497843 16.08365871 21.7497843 13 22 C10.80835056 25.28747416 10.71320614 26.48494825 10.5859375 30.32421875 C10.54726562 31.35224609 10.50859375 32.38027344 10.46875 33.43945312 C10.4378125 34.51130859 10.406875 35.58316406 10.375 36.6875 C10.33632812 37.77095703 10.29765625 38.85441406 10.2578125 39.97070312 C10.16349884 42.64685334 10.08065874 45.32340342 10 48 C6.7 48 3.4 48 0 48 C-0.495 35.625 -0.495 35.625 -1 23 C-2.55571828 28.60843778 -2.55571828 28.60843778 -4.11083984 34.21704102 C-5.38774074 38.81710505 -6.68197459 43.41154706 -8 48 C-12.29 48 -16.58 48 -21 48 C-22.32 41.73 -23.64 35.46 -25 29 C-26.44755587 33.3426676 -27.62813379 37.43441413 -28.625 41.875 C-28.88539062 43.02742188 -29.14578125 44.17984375 -29.4140625 45.3671875 C-29.60742188 46.23601562 -29.80078125 47.10484375 -30 48 C-33.96 48 -37.92 48 -42 48 C-44.4829505 41.69941991 -46.41075184 35.34479138 -48.1875 28.8125 C-48.46013672 27.84119141 -48.73277344 26.86988281 -49.01367188 25.86914062 C-49.27083984 24.92876953 -49.52800781 23.98839844 -49.79296875 23.01953125 C-50.0252417 22.17495361 -50.25751465 21.33037598 -50.49682617 20.46020508 C-51 18 -51 18 -51 13 C-47.7 13 -44.4 13 -41 13 C-40.35269196 15.56213554 -39.70710712 18.12468485 -39.0625 20.6875 C-38.88009766 21.40873047 -38.69769531 22.12996094 -38.50976562 22.87304688 C-38.33251953 23.57880859 -38.15527344 24.28457031 -37.97265625 25.01171875 C-37.81031494 25.65584717 -37.64797363 26.29997559 -37.48071289 26.96362305 C-36.93004578 29.29633732 -36.47005688 31.64971562 -36 34 C-34.35 27.07 -32.7 20.14 -31 13 C-27.04 13 -23.08 13 -19 13 C-17.68 19.6 -16.36 26.2 -15 33 C-14.67 33 -14.34 33 -14 33 C-13.72285156 31.72382813 -13.44570312 30.44765625 -13.16015625 29.1328125 C-12.79441043 27.46351107 -12.42851738 25.7942419 -12.0625 24.125 C-11.88009766 23.28324219 -11.69769531 22.44148438 -11.50976562 21.57421875 C-11.33251953 20.76855469 -11.15527344 19.96289062 -10.97265625 19.1328125 C-10.81031494 18.38918457 -10.64797363 17.64555664 -10.48071289 16.87939453 C-10 15 -10 15 -9 13 C-6.03 13 -3.06 13 0 13 C0 8.71 0 4.42 0 0 Z " fill="#A8A8A8" transform="translate(149,219)"/>
<path d="M0 0 C0.66 0 1.32 0 2 0 C3.17333984 1.35766602 3.17333984 1.35766602 4.4609375 3.25390625 C4.93273437 3.94419922 5.40453125 4.63449219 5.890625 5.34570312 C6.38046875 6.07724609 6.8703125 6.80878906 7.375 7.5625 C7.85710937 8.26697266 8.33921875 8.97144531 8.8359375 9.69726562 C11.77254539 14.02636829 14.46325398 18.42544142 17 23 C14.92276588 25.92105438 12.83715485 28.83602792 10.75 31.75 C10.16347656 32.575 9.57695312 33.4 8.97265625 34.25 C8.39902344 35.04921875 7.82539063 35.8484375 7.234375 36.671875 C6.71069336 37.4050293 6.18701172 38.13818359 5.64746094 38.89355469 C4 41 4 41 0 45 C0 30.15 0 15.3 0 0 Z " fill="#F2F2F2" transform="translate(313,219)"/>
<path d="M0 0 C7.59 0 15.18 0 23 0 C23 5.94 23 11.88 23 18 C22.34 18.33 21.68 18.66 21 19 C21 15.37 21 11.74 21 8 C14.07 8 7.14 8 0 8 C0 5.36 0 2.72 0 0 Z " fill="#F6F6F6" transform="translate(275,230)"/>
<path d="M0 0 C8.25 0 16.5 0 25 0 C25 1.98 25 3.96 25 6 C22.36 5.01 19.72 4.02 17 3 C16.34 3.825 15.68 4.65 15 5.5 C11.48897796 8.4258517 11.48897796 8.4258517 7.9375 8.625 C4 8 4 8 1.5 5.6875 C0 3 0 3 0 0 Z " fill="#F3F3F3" transform="translate(224,252)"/>
<path d="M0 0 C7.26 0 14.52 0 22 0 C22 1.65 22 3.3 22 5 C20.02 4.34 18.04 3.68 16 3 C15.319375 3.825 14.63875 4.65 13.9375 5.5 C11 8 11 8 7.4375 8.5625 C4 8 4 8 1.5625 6.25 C0 4 0 4 0 0 Z " fill="#F3F3F3" transform="translate(192,252)"/>
<path d="M0 0 C3.4375 0.8125 3.4375 0.8125 5.4375 3.8125 C5.4375 4.8025 5.4375 5.7925 5.4375 6.8125 C0.8175 6.8125 -3.8025 6.8125 -8.5625 6.8125 C-5.71713918 -0.30090206 -5.71713918 -0.30090206 0 0 Z " fill="#F1F1F1" transform="translate(232.5625,238.1875)"/>
<path d="M0 0 C3.4375 0.75 3.4375 0.75 5.4375 2.75 C5.4375 4.07 5.4375 5.39 5.4375 6.75 C0.8175 6.75 -3.8025 6.75 -8.5625 6.75 C-5.70243174 -0.40017065 -5.70243174 -0.40017065 0 0 Z " fill="#F1F1F1" transform="translate(199.5625,238.25)"/>
<path d="M0 0 C0.33 0 0.66 0 1 0 C1 8.91 1 17.82 1 27 C0.67 27 0.34 27 0 27 C-0.02505615 26.44014404 -0.0501123 25.88028809 -0.07592773 25.3034668 C-0.19203745 22.76458695 -0.3146958 20.22606447 -0.4375 17.6875 C-0.47681641 16.80642578 -0.51613281 15.92535156 -0.55664062 15.01757812 C-0.59853516 14.17001953 -0.64042969 13.32246094 -0.68359375 12.44921875 C-0.73858032 11.27879028 -0.73858032 11.27879028 -0.79467773 10.0847168 C-0.94125263 7.80670899 -0.94125263 7.80670899 -2 5 C-1.0625 2.3125 -1.0625 2.3125 0 0 Z " fill="#E6E6E6" transform="translate(148,240)"/>
</svg>
